<?xml version="1.0" encoding="utf-8"?>
<!-- Generator: Adobe Illustrator 19.0.1, SVG Export Plug-In . SVG Version: 6.00 Build 0)  -->
<svg version="1.1" id="Layer_1" xmlns:sketch="http://www.bohemiancoding.com/sketch/ns"
	 xmlns="http://www.w3.org/2000/svg" xmlns:xlink="http://www.w3.org/1999/xlink" x="0px" y="0px" viewBox="-57 -111 497 1014"
	 style="enable-background:new -57 -111 497 1014;" xml:space="preserve">
<style type="text/css">
	.st0{fill:#AAAAAA;}
</style>
<title>Apple iPhone 6</title>
<desc>Created with Sketch Beta.</desc>
<g>
	<path class="st0" d="M438.5,104H437V-36c0-41.4-33.6-75-75-75H21c-41.4,0-75,33.6-75,75v53h-1.5c-0.8,0-1.5,0.7-1.5,1.5v38
		c0,0.8,0.7,1.5,1.5,1.5h1.5v46h-1.5c-0.8,0-1.5,0.7-1.5,1.5v72c0,0.8,0.7,1.5,1.5,1.5h1.5v17h-1.5c-0.8,0-1.5,0.7-1.5,1.5v72
		c0,0.8,0.7,1.5,1.5,1.5h1.5v557c0,41.4,33.6,75,75,75h341c41.4,0,75-33.6,75-75V179h1.5c0.8,0,1.5-0.7,1.5-1.5v-72
		C440,104.7,439.3,104,438.5,104z M156-51h72c2.2,0,4,1.8,4,4s-1.8,4-4,4h-72c-2.2,0-4-1.8-4-4S153.8-51,156-51z M407,778H-24V12
		h431V778z"/>
</g>
</svg>
